# Blender 5.0.1
# www.blender.org
mtllib collision.mtl
o Object_0.001
v -0.398000 -0.598400 0.451500
v -0.398000 0.598400 0.451500
v 0.398000 0.598400 0.451500
v 0.398000 -0.598400 0.451500
v 0.398000 -0.600000 0.452900
v 0.398000 -0.600000 0.471100
v -0.398000 -0.600000 0.471100
v -0.398000 -0.600000 0.452900
v 0.400000 0.598400 0.452900
v 0.400000 0.598400 0.471100
v 0.400000 -0.598400 0.462000
v -0.398000 0.598400 0.472500
v -0.398000 -0.598400 0.472500
v 0.398000 -0.598400 0.472500
v 0.398000 0.598400 0.472500
v -0.398000 0.600000 0.452900
v -0.398000 0.600000 0.471100
v 0.398000 0.600000 0.462000
v 0.399207 0.598631 0.471020
v 0.398571 0.598940 0.470653
v 0.399207 -0.598631 0.471020
v -0.398707 0.598400 0.451705
v 0.398707 0.598400 0.472295
v 0.398000 0.598966 0.451705
v -0.400000 -0.598400 0.452900
v -0.400000 -0.598400 0.471100
v -0.400000 0.598400 0.471100
v -0.400000 0.598400 0.452900
vn -0.0000 -0.0000 -1.0000
vn -0.0000 -1.0000 -0.0000
vn 0.9274 0.0967 -0.3614
vn 0.9894 0.1454 0.0003
vn 0.7959 -0.6021 0.0636
vn -0.3414 0.9399 -0.0003
vn -0.2432 0.9520 0.1862
vn 0.0013 0.9999 0.0141
vn -0.9184 0.3062 -0.2507
vn -0.7699 -0.6381 -0.0059
vn -0.8114 -0.4751 0.3404
vn -0.9067 0.3179 0.2770
vn 0.7307 -0.0004 0.6827
vn -0.3157 -0.0005 0.9489
vn -0.2269 0.3455 0.9106
vn -0.6788 -0.0000 -0.7343
vn 0.7309 -0.6799 0.0585
vn 0.5734 -0.0062 -0.8192
vn 0.0001 -0.8271 0.5621
vn -0.0000 -0.9880 0.1543
vn -0.0003 -1.0000 0.0005
vn -0.0004 0.5430 -0.8397
vn 0.0936 0.3988 0.9123
vn -0.5176 0.6470 -0.5599
vn 0.0011 0.9506 0.3106
vn 0.5497 0.2847 -0.7854
vn 0.3228 0.9417 -0.0946
vn 0.6247 0.7809 -0.0000
vn 0.3262 0.9406 0.0937
vn 0.2254 0.9018 0.3686
vn 0.2450 0.9326 0.2650
vn 0.2783 -0.0000 0.9605
vn 0.0056 -0.0049 -1.0000
vn -0.4661 0.5826 0.6658
vn 0.0011 0.9950 -0.1000
vn 0.0883 0.9484 0.3045
vn 0.2853 0.9172 0.2780
vt 0.003844 0.048276
vt 0.991416 0.048276
vt 0.991416 0.995519
vt 0.003844 0.995519
vt 0.028053 0.992339
vt 0.007281 0.992339
vt 0.007281 0.045843
vt 0.028053 0.045843
vt 0.977138 0.092166
vt 0.977138 0.067323
vt 0.016758 0.079744
vt 0.017667 0.992339
vt 0.016758 0.092166
vt 0.016758 0.067323
vt 0.000000 0.000000
s 1
usemtl Table_wood_1.002
f 1/1/1 2/2/1 3/3/1
f 1/1/1 3/3/1 4/4/1
f 5/5/2 6/6/2 7/7/2
f 5/5/2 7/7/2 8/8/2
f 9/9/3 10/10/4 11/11/5
f 16/8/6 17/7/7 18/12/8
f 28/9/9 25/13/10 26/14/11 27/10/12
f 23/15/13 14/4/13 21/15/13 10/10/13
f 27/15/12 26/14/11 13/1/14 12/2/15
f 28/9/9 22/15/16 25/13/10
f 21/15/17 26/14/11 25/15/10 11/15/5
f 3/15/18 9/9/3 11/11/5
f 10/10/4 21/15/17 11/15/5
f 14/4/19 13/1/14 21/15/20
f 13/1/21 26/14/21 21/15/21
f 24/15/22 3/15/22 22/15/22 16/8/22
f 16/8/6 28/9/9 27/15/12 17/7/7
f 13/1/14 14/4/19 15/3/23 12/2/15
f 16/8/24 22/15/24 28/9/24
f 17/7/7 12/2/15 15/15/23 20/15/25
f 24/15/26 9/9/26 3/15/26
f 24/15/27 18/15/27 9/9/27
f 18/15/28 10/10/4 9/9/3
f 18/15/29 20/15/29 10/10/29
f 20/15/30 19/15/30 10/10/30
f 19/15/31 23/15/31 10/10/31
f 23/15/32 15/3/23 14/4/19
f 3/15/33 11/15/33 25/13/33 22/15/33
f 12/2/34 17/7/34 27/15/34
f 18/15/8 24/15/35 16/8/6
f 17/7/7 20/15/25 18/15/8
f 15/3/36 23/15/36 20/15/36
f 23/15/37 19/15/37 20/15/37
